<?xml version="1.0" standalone="no"?>
<!DOCTYPE svg PUBLIC "-//W3C//DTD SVG 20010904//EN"
 "http://www.w3.org/TR/2001/REC-SVG-20010904/DTD/svg10.dtd">
<svg version="1.0" xmlns="http://www.w3.org/2000/svg"
 width="358.000000pt" height="188.000000pt" viewBox="0 0 358.000000 188.000000"
 preserveAspectRatio="xMidYMid meet">
<metadata>
Created by potrace 1.16, written by Peter Selinger 2001-2019
</metadata>
<g transform="translate(0.000000,188.000000) scale(0.100000,-0.100000)"
fill="#000000" stroke="none">
<path d="M1047 1752 c-15 -17 -17 -66 -17 -495 0 -419 2 -477 16 -491 14 -14
96 -16 758 -16 707 0 744 1 759 18 15 17 17 66 17 495 l0 476 -22 15 c-20 14
-109 16 -759 16 -700 0 -737 -1 -752 -18z m1493 -482 l0 -460 -737 2 -738 3
-3 445 c-1 245 0 451 3 458 3 9 161 12 740 12 l735 0 0 -460z"/>
<path d="M1167 1663 c-4 -3 -7 -24 -7 -45 l0 -38 646 0 645 0 -3 43 -3 42
-636 3 c-349 1 -639 -1 -642 -5z"/>
<path d="M2025 1476 c-13 -9 -15 -33 -13 -151 l3 -140 125 0 125 0 3 142 c2
134 1 143 -18 153 -26 14 -205 11 -225 -4z"/>
<path d="M2894 1675 c-4 -8 -2 -21 4 -28 5 -6 35 -61 67 -122 32 -60 59 -112
61 -114 9 -10 54 45 65 77 l12 36 68 -135 c58 -114 68 -139 63 -171 -3 -20 -1
-46 5 -57 9 -16 -3 -59 -63 -227 -69 -196 -75 -208 -107 -225 -32 -17 -72 -18
-557 -19 l-523 0 3 -27 c2 -22 10 -30 36 -38 17 -5 32 -13 32 -17 0 -4 -112
-8 -250 -8 -160 0 -250 4 -250 10 0 6 9 10 19 10 25 0 51 26 51 51 0 19 -17
19 -815 19 l-815 0 0 -345 0 -345 618 0 617 0 28 45 c15 27 27 60 27 80 l0 35
-141 0 -140 0 3 25 c2 14 54 90 117 170 l114 145 572 0 572 0 117 -149 c64
-83 116 -159 116 -170 0 -20 -5 -21 -175 -21 l-175 0 0 -35 c0 -19 10 -55 22
-80 l22 -45 633 0 633 0 0 345 0 345 -170 0 c-133 0 -178 3 -200 15 l-29 15
67 195 c61 175 71 198 99 214 16 11 33 31 37 45 9 35 -18 84 -50 92 -20 5 -39
33 -99 154 -61 122 -73 154 -69 181 4 25 0 41 -16 62 -24 31 -39 33 -80 12
-25 -13 -32 -13 -57 0 -38 20 -112 20 -119 0z m406 -560 c0 -6 -131 -378 -135
-385 -3 -5 -14 -6 -24 -3 -18 5 -16 15 36 161 30 87 62 176 70 198 11 34 18
41 34 37 10 -3 19 -7 19 -8z"/>
<path d="M1606 122 c-28 -45 -39 -54 -107 -92 l-54 -30 328 0 c180 0 327 2
327 5 0 2 -17 14 -37 25 -53 28 -88 60 -107 98 l-17 32 -154 0 -155 0 -24 -38z"/>
</g>
</svg>
