<?xml version="1.0" standalone="no"?>
<!DOCTYPE svg PUBLIC "-//W3C//DTD SVG 20010904//EN"
 "http://www.w3.org/TR/2001/REC-SVG-20010904/DTD/svg10.dtd">
<svg version="1.0" xmlns="http://www.w3.org/2000/svg"
 width="358.000000pt" height="188.000000pt" viewBox="0 0 358.000000 188.000000"
 preserveAspectRatio="xMidYMid meet">
<metadata>
Created by potrace 1.16, written by Peter Selinger 2001-2019
</metadata>
<g transform="translate(0.000000,188.000000) scale(0.100000,-0.100000)"
fill="#000000" stroke="none">
<path d="M0 1220 l0 -660 203 0 c200 0 204 0 225 23 l22 23 -30 29 c-38 36
-38 54 0 90 l30 29 -30 31 c-37 38 -37 45 -4 84 l26 31 -32 36 -32 37 36 36
36 35 -37 38 -37 38 37 37 37 37 -37 38 -37 38 37 38 37 38 -36 35 -36 36 31
35 c17 20 31 41 31 47 0 6 13 11 30 11 20 0 28 -4 24 -13 -2 -7 9 -26 26 -42
37 -36 37 -44 0 -80 l-30 -29 30 -31 c38 -39 38 -54 0 -90 l-30 -29 30 -31
c16 -17 30 -38 30 -46 0 -8 -14 -28 -30 -44 l-30 -29 30 -31 c16 -17 30 -35
30 -40 0 -5 -14 -24 -32 -42 l-32 -33 32 -33 c18 -18 32 -37 32 -42 0 -5 -14
-24 -32 -42 l-32 -33 32 -33 c18 -18 32 -37 32 -42 0 -5 -14 -23 -31 -41 l-31
-32 23 -21 c21 -19 34 -21 177 -21 l154 0 -3 -102 -4 -103 32 -3 c27 -3 33 0
31 15 0 10 0 52 2 93 3 75 5 69 16 -47 5 -60 7 -63 32 -63 l27 0 -3 105 c-2
64 0 105 6 105 5 0 12 9 15 20 5 19 14 20 196 20 219 0 201 12 172 -114 -27
-114 -29 -131 -11 -131 9 0 16 11 18 28 3 25 7 27 46 27 42 0 42 -1 38 -30 -3
-22 0 -30 11 -30 14 0 25 44 42 170 4 25 9 53 11 63 5 16 41 17 578 17 l573 0
11 -25 c10 -21 9 -33 -8 -65 -15 -30 -20 -59 -20 -119 0 -44 -4 -83 -10 -86
-15 -10 -12 -23 8 -28 9 -3 -583 -5 -1315 -6 l-1333 -1 0 -135 0 -135 1790 0
1790 0 0 135 0 135 -457 1 c-252 1 -447 4 -433 8 24 7 25 9 23 87 l-3 79 30
-64 c17 -35 29 -71 28 -80 -2 -12 7 -17 40 -19 23 -2 42 -1 42 2 0 3 -16 40
-36 83 -36 80 -39 105 -15 167 l12 29 217 -6 c119 -4 292 -4 385 0 l167 6 0
659 0 658 -1790 0 -1790 0 0 -660z m636 502 c7 -4 13 -16 15 -27 4 -19 13 -20
190 -23 l185 -2 29 30 29 30 136 0 c131 0 137 -1 159 -24 14 -15 21 -31 17
-43 -5 -17 -23 -18 -323 -17 -175 1 -342 -1 -370 -3 -49 -5 -53 -7 -53 -30 0
-25 -1 -26 -52 -19 -29 3 -90 6 -135 6 l-83 0 0 58 c0 32 3 61 6 65 9 9 236 8
250 -1z m2139 -42 c17 -18 31 -20 167 -20 141 0 150 1 155 20 5 18 14 20 114
20 l109 0 0 -55 0 -55 -109 0 c-100 0 -109 2 -114 20 -5 19 -14 20 -301 20
-258 0 -297 2 -303 15 -3 9 3 25 12 35 16 18 32 20 135 20 104 0 119 -2 135
-20z m519 -196 l28 -34 -25 -34 -26 -33 26 -26 26 -26 -26 -34 -26 -34 24 -23
c31 -29 31 -32 1 -67 l-24 -27 24 -32 25 -32 -26 -30 c-21 -25 -23 -33 -13
-44 39 -41 40 -44 13 -76 -21 -25 -23 -33 -13 -44 39 -41 40 -45 13 -76 l-25
-29 20 -23 c35 -40 22 -55 -16 -19 l-22 21 -31 -23 c-40 -30 -52 -17 -18 19
l27 28 -25 24 c-14 13 -25 28 -25 34 0 5 11 22 25 36 l25 26 -25 24 c-14 13
-25 28 -25 34 0 5 11 22 25 36 l25 26 -25 24 c-14 13 -25 28 -25 34 0 5 11 22
25 36 l25 26 -25 24 c-14 13 -25 29 -25 35 0 6 11 22 25 35 l25 24 -25 26
c-14 14 -25 30 -25 35 0 5 11 21 25 35 l25 26 -25 24 c-31 29 -31 41 0 70 13
12 22 27 19 31 -3 5 5 9 18 8 13 0 35 -15 52 -35z m-1874 -134 l0 -119 -147
-4 c-82 -1 -5 -4 170 -5 l318 -2 -3 -37 -3 -38 -312 -3 -313 -2 0 -30 0 -30
705 0 705 0 0 75 0 75 -555 0 -555 0 0 120 0 120 445 0 445 0 0 -80 0 -80 73
-2 c39 -1 101 -2 137 -2 l65 -1 3 83 c2 49 7 80 12 77 6 -4 10 -107 10 -256 0
-191 3 -250 13 -253 6 -2 30 -8 52 -13 35 -7 40 -12 38 -33 -6 -53 -13 -69
-36 -72 -16 -2 -22 -10 -22 -28 0 -14 -11 -39 -24 -57 l-24 -32 -29 24 c-29
24 -58 33 -58 17 0 -15 51 -82 70 -92 15 -8 26 -7 45 6 l26 17 -7 -29 c-10
-41 -16 -45 -54 -33 -23 6 -219 10 -545 9 -280 0 -516 4 -524 9 -10 7 -11 18
-3 57 6 27 9 50 7 52 -9 10 -25 -12 -25 -34 0 -22 -4 -24 -45 -24 -43 0 -45 1
-45 30 0 51 -17 33 -29 -31 l-12 -61 -160 4 c-126 3 -162 7 -169 18 -16 25
-12 203 5 251 14 39 14 45 0 55 -13 10 -15 46 -15 246 0 169 3 237 12 246 8 8
64 12 185 12 l173 0 0 -120z m1160 15 l0 -35 -120 0 -120 0 0 35 0 35 120 0
120 0 0 -35z m394 -441 c12 -5 16 -21 16 -69 0 -71 -4 -75 -79 -75 -58 0 -71
12 -71 68 0 68 12 82 70 82 26 0 55 -3 64 -6z"/>
<path d="M1720 463 c0 -10 -3 -35 -6 -55 l-7 -38 142 0 141 0 -6 43 c-3 23 -7
48 -10 55 -2 9 -37 12 -129 12 -112 0 -125 -2 -125 -17z"/>
</g>
</svg>
